<svg width="126" height="30" viewBox="0 0 126 30" fill="none" xmlns="http://www.w3.org/2000/svg">
<rect x="0.5" y="0.5" width="125" height="29" rx="14.5" fill="white" stroke="black"/>
<path d="M15 1.25168e-06C13.0302 1.33778e-06 11.0796 0.387989 9.25975 1.14181C7.43986 1.89563 5.78628 3.00052 4.3934 4.3934C3.00052 5.78628 1.89563 7.43987 1.14181 9.25975C0.387986 11.0796 -8.27879e-07 13.0302 -6.55671e-07 15L7.5 15C7.5 14.0151 7.69399 13.0398 8.0709 12.1299C8.44781 11.2199 9.00026 10.3931 9.6967 9.6967C10.3931 9.00026 11.2199 8.44781 12.1299 8.07091C13.0398 7.69399 14.0151 7.5 15 7.5L15 1.25168e-06Z" fill="black"/>
<path d="M108 30C110.232 30 112.443 29.612 114.506 28.8582C116.568 28.1044 118.442 26.9995 120.021 25.6066C121.599 24.2137 122.852 22.5601 123.706 20.7403C124.56 18.9204 125 16.9698 125 15L116.5 15C116.5 15.9849 116.28 16.9602 115.853 17.8701C115.426 18.7801 114.8 19.6069 114.01 20.3033C113.221 20.9997 112.284 21.5522 111.253 21.9291C110.222 22.306 109.116 22.5 108 22.5L108 30Z" fill="black"/>
<path d="M28.2411 19L31.6131 11.056H32.7411L36.1131 19H35.1171L34.1451 16.696H30.2091L29.2371 19H28.2411ZM30.5571 15.868H33.7971L32.1771 11.992L30.5571 15.868ZM37.2385 19V13.792H36.0145V13H37.2385V10.852H38.1385V13H39.5185V13.792H38.1385V19H37.2385ZM41.1526 19V13.792H39.9286V13H41.1526V10.852H42.0526V13H43.4326V13.792H42.0526V19H41.1526ZM46.9655 19.096C46.3575 19.096 45.8255 18.96 45.3695 18.688C44.9135 18.408 44.5575 18.032 44.3015 17.56C44.0535 17.088 43.9295 16.568 43.9295 16C43.9295 15.424 44.0495 14.904 44.2895 14.44C44.5295 13.968 44.8735 13.596 45.3215 13.324C45.7695 13.044 46.2975 12.904 46.9055 12.904C47.5215 12.904 48.0495 13.044 48.4895 13.324C48.9375 13.596 49.2815 13.968 49.5215 14.44C49.7615 14.904 49.8815 15.424 49.8815 16V16.36H44.8535C44.9015 16.712 45.0135 17.036 45.1895 17.332C45.3735 17.62 45.6175 17.852 45.9215 18.028C46.2255 18.196 46.5775 18.28 46.9775 18.28C47.4015 18.28 47.7575 18.188 48.0455 18.004C48.3335 17.812 48.5575 17.568 48.7175 17.272H49.7015C49.4935 17.808 49.1615 18.248 48.7055 18.592C48.2575 18.928 47.6775 19.096 46.9655 19.096ZM44.8655 15.52H48.9455C48.8655 15.008 48.6495 14.58 48.2975 14.236C47.9455 13.892 47.4815 13.72 46.9055 13.72C46.3295 13.72 45.8655 13.892 45.5135 14.236C45.1695 14.58 44.9535 15.008 44.8655 15.52ZM50.9812 19V13H51.8812V13.936C52.0972 13.648 52.3612 13.404 52.6732 13.204C52.9852 13.004 53.3852 12.904 53.8732 12.904C54.2892 12.904 54.6772 13.004 55.0372 13.204C55.4052 13.396 55.7012 13.688 55.9252 14.08C56.1572 14.464 56.2732 14.94 56.2732 15.508V19H55.3732V15.532C55.3732 14.988 55.2172 14.552 54.9052 14.224C54.5932 13.888 54.1892 13.72 53.6932 13.72C53.3572 13.72 53.0532 13.796 52.7812 13.948C52.5092 14.1 52.2892 14.316 52.1212 14.596C51.9612 14.868 51.8812 15.184 51.8812 15.544V19H50.9812ZM60.31 19.096C59.726 19.096 59.214 18.96 58.774 18.688C58.342 18.408 58.006 18.032 57.766 17.56C57.526 17.088 57.406 16.568 57.406 16C57.406 15.424 57.526 14.904 57.766 14.44C58.006 13.968 58.342 13.596 58.774 13.324C59.214 13.044 59.726 12.904 60.31 12.904C60.806 12.904 61.23 13 61.582 13.192C61.942 13.384 62.234 13.644 62.458 13.972V10.6H63.358V19H62.458V18.04C62.234 18.36 61.942 18.616 61.582 18.808C61.23 19 60.806 19.096 60.31 19.096ZM60.43 18.28C60.878 18.28 61.254 18.176 61.558 17.968C61.87 17.76 62.106 17.484 62.266 17.14C62.426 16.788 62.506 16.408 62.506 16C62.506 15.584 62.426 15.204 62.266 14.86C62.106 14.516 61.87 14.24 61.558 14.032C61.254 13.824 60.878 13.72 60.43 13.72C59.99 13.72 59.61 13.824 59.29 14.032C58.97 14.24 58.726 14.516 58.558 14.86C58.39 15.204 58.306 15.584 58.306 16C58.306 16.408 58.39 16.788 58.558 17.14C58.726 17.484 58.97 17.76 59.29 17.968C59.61 18.176 59.99 18.28 60.43 18.28ZM67.6615 19V11.056H73.5055V11.92H68.5615V14.584H72.9775V15.46H68.5615V18.136H73.5055V19H67.6615ZM76.203 19L73.851 13H74.835L76.731 18.04L78.615 13H79.599L77.259 19H76.203ZM82.9889 19.096C82.3809 19.096 81.8489 18.96 81.3929 18.688C80.9369 18.408 80.5809 18.032 80.3249 17.56C80.0769 17.088 79.9529 16.568 79.9529 16C79.9529 15.424 80.0729 14.904 80.3129 14.44C80.5529 13.968 80.8969 13.596 81.3449 13.324C81.7929 13.044 82.3209 12.904 82.9289 12.904C83.5449 12.904 84.0729 13.044 84.5129 13.324C84.9609 13.596 85.3049 13.968 85.5449 14.44C85.7849 14.904 85.9049 15.424 85.9049 16V16.36H80.8769C80.9249 16.712 81.0369 17.036 81.2129 17.332C81.3969 17.62 81.6409 17.852 81.9449 18.028C82.2489 18.196 82.6009 18.28 83.0009 18.28C83.4249 18.28 83.7809 18.188 84.0689 18.004C84.3569 17.812 84.5809 17.568 84.7409 17.272H85.7249C85.5169 17.808 85.1849 18.248 84.7289 18.592C84.2809 18.928 83.7009 19.096 82.9889 19.096ZM80.8889 15.52H84.9689C84.8889 15.008 84.6729 14.58 84.3209 14.236C83.9689 13.892 83.5049 13.72 82.9289 13.72C82.3529 13.72 81.8889 13.892 81.5369 14.236C81.1929 14.58 80.9769 15.008 80.8889 15.52ZM87.0046 19V13H87.9046V13.936C88.1206 13.648 88.3846 13.404 88.6966 13.204C89.0086 13.004 89.4086 12.904 89.8966 12.904C90.3126 12.904 90.7006 13.004 91.0606 13.204C91.4286 13.396 91.7246 13.688 91.9486 14.08C92.1806 14.464 92.2966 14.94 92.2966 15.508V19H91.3966V15.532C91.3966 14.988 91.2406 14.552 90.9286 14.224C90.6166 13.888 90.2126 13.72 89.7166 13.72C89.3806 13.72 89.0766 13.796 88.8046 13.948C88.5326 14.1 88.3126 14.316 88.1446 14.596C87.9846 14.868 87.9046 15.184 87.9046 15.544V19H87.0046ZM94.3089 19V13.792H93.0849V13H94.3089V10.852H95.2089V13H96.5889V13.792H95.2089V19H94.3089Z" fill="black"/>
</svg>
