<svg width="126" height="30" viewBox="0 0 126 30" fill="none" xmlns="http://www.w3.org/2000/svg">
<rect width="126" height="30" rx="15" fill="#D9D9D9"/>
<path d="M32.6967 19.096C31.9047 19.096 31.2207 18.916 30.6447 18.556C30.0687 18.188 29.6247 17.696 29.3127 17.08C29.0087 16.464 28.8567 15.78 28.8567 15.028C28.8567 14.276 29.0087 13.592 29.3127 12.976C29.6247 12.36 30.0687 11.872 30.6447 11.512C31.2207 11.144 31.9047 10.96 32.6967 10.96C33.2967 10.96 33.8367 11.068 34.3167 11.284C34.7967 11.492 35.2047 11.78 35.5407 12.148C35.8767 12.516 36.1287 12.944 36.2967 13.432H35.3487C35.1487 12.944 34.8327 12.556 34.4007 12.268C33.9687 11.98 33.4247 11.836 32.7687 11.836C32.1287 11.836 31.5807 11.98 31.1247 12.268C30.6767 12.548 30.3367 12.928 30.1047 13.408C29.8727 13.888 29.7567 14.428 29.7567 15.028C29.7567 15.62 29.8727 16.16 30.1047 16.648C30.3367 17.128 30.6767 17.512 31.1247 17.8C31.5807 18.08 32.1287 18.22 32.7687 18.22C33.4247 18.22 33.9687 18.076 34.4007 17.788C34.8327 17.5 35.1487 17.112 35.3487 16.624H36.2967C36.1287 17.104 35.8767 17.532 35.5407 17.908C35.2047 18.276 34.7967 18.568 34.3167 18.784C33.8367 18.992 33.2967 19.096 32.6967 19.096ZM37.4538 19V13H38.3538V14.476C38.3858 14.372 38.4458 14.236 38.5338 14.068C38.6298 13.892 38.7658 13.716 38.9418 13.54C39.1178 13.364 39.3378 13.216 39.6018 13.096C39.8738 12.968 40.1938 12.904 40.5618 12.904H40.6218V13.804H40.5138C40.0658 13.804 39.6778 13.928 39.3498 14.176C39.0298 14.416 38.7818 14.732 38.6058 15.124C38.4378 15.508 38.3538 15.92 38.3538 16.36V19H37.4538ZM44.1022 19.096C43.4942 19.096 42.9622 18.96 42.5062 18.688C42.0502 18.408 41.6942 18.032 41.4382 17.56C41.1902 17.088 41.0662 16.568 41.0662 16C41.0662 15.424 41.1862 14.904 41.4262 14.44C41.6662 13.968 42.0102 13.596 42.4582 13.324C42.9062 13.044 43.4342 12.904 44.0422 12.904C44.6582 12.904 45.1862 13.044 45.6262 13.324C46.0742 13.596 46.4182 13.968 46.6582 14.44C46.8982 14.904 47.0182 15.424 47.0182 16V16.36H41.9902C42.0382 16.712 42.1502 17.036 42.3262 17.332C42.5102 17.62 42.7542 17.852 43.0582 18.028C43.3622 18.196 43.7142 18.28 44.1142 18.28C44.5382 18.28 44.8942 18.188 45.1822 18.004C45.4702 17.812 45.6942 17.568 45.8542 17.272H46.8382C46.6302 17.808 46.2982 18.248 45.8422 18.592C45.3942 18.928 44.8142 19.096 44.1022 19.096ZM42.0022 15.52H46.0822C46.0022 15.008 45.7862 14.58 45.4342 14.236C45.0822 13.892 44.6182 13.72 44.0422 13.72C43.4662 13.72 43.0022 13.892 42.6502 14.236C42.3062 14.58 42.0902 15.008 42.0022 15.52ZM50.6499 19.096C50.0659 19.096 49.5539 18.96 49.1139 18.688C48.6819 18.408 48.3459 18.032 48.1059 17.56C47.8659 17.088 47.7459 16.568 47.7459 16C47.7459 15.424 47.8659 14.904 48.1059 14.44C48.3459 13.968 48.6819 13.596 49.1139 13.324C49.5539 13.044 50.0659 12.904 50.6499 12.904C51.1459 12.904 51.5699 13 51.9219 13.192C52.2819 13.384 52.5739 13.644 52.7979 13.972V13H53.6979V19H52.7979V18.04C52.5739 18.36 52.2819 18.616 51.9219 18.808C51.5699 19 51.1459 19.096 50.6499 19.096ZM50.7699 18.28C51.2179 18.28 51.5939 18.176 51.8979 17.968C52.2099 17.76 52.4459 17.484 52.6059 17.14C52.7659 16.788 52.8459 16.408 52.8459 16C52.8459 15.584 52.7659 15.204 52.6059 14.86C52.4459 14.516 52.2099 14.24 51.8979 14.032C51.5939 13.824 51.2179 13.72 50.7699 13.72C50.3299 13.72 49.9499 13.824 49.6299 14.032C49.3099 14.24 49.0659 14.516 48.8979 14.86C48.7299 15.204 48.6459 15.584 48.6459 16C48.6459 16.408 48.7299 16.788 48.8979 17.14C49.0659 17.484 49.3099 17.76 49.6299 17.968C49.9499 18.176 50.3299 18.28 50.7699 18.28ZM55.9026 19V13.792H54.6786V13H55.9026V10.852H56.8026V13H58.1826V13.792H56.8026V19H55.9026ZM61.7155 19.096C61.1075 19.096 60.5755 18.96 60.1195 18.688C59.6635 18.408 59.3075 18.032 59.0515 17.56C58.8035 17.088 58.6795 16.568 58.6795 16C58.6795 15.424 58.7995 14.904 59.0395 14.44C59.2795 13.968 59.6235 13.596 60.0715 13.324C60.5195 13.044 61.0475 12.904 61.6555 12.904C62.2715 12.904 62.7995 13.044 63.2395 13.324C63.6875 13.596 64.0315 13.968 64.2715 14.44C64.5115 14.904 64.6315 15.424 64.6315 16V16.36H59.6035C59.6515 16.712 59.7635 17.036 59.9395 17.332C60.1235 17.62 60.3675 17.852 60.6715 18.028C60.9755 18.196 61.3275 18.28 61.7275 18.28C62.1515 18.28 62.5075 18.188 62.7955 18.004C63.0835 17.812 63.3075 17.568 63.4675 17.272H64.4515C64.2435 17.808 63.9115 18.248 63.4555 18.592C63.0075 18.928 62.4275 19.096 61.7155 19.096ZM59.6155 15.52H63.6955C63.6155 15.008 63.3995 14.58 63.0475 14.236C62.6955 13.892 62.2315 13.72 61.6555 13.72C61.0795 13.72 60.6155 13.892 60.2635 14.236C59.9195 14.58 59.7035 15.008 59.6155 15.52ZM68.4779 19V11.056H74.3219V11.92H69.3779V14.584H73.7939V15.46H69.3779V18.136H74.3219V19H68.4779ZM77.0194 19L74.6674 13H75.6514L77.5474 18.04L79.4314 13H80.4154L78.0754 19H77.0194ZM83.8053 19.096C83.1973 19.096 82.6653 18.96 82.2093 18.688C81.7533 18.408 81.3973 18.032 81.1413 17.56C80.8933 17.088 80.7693 16.568 80.7693 16C80.7693 15.424 80.8893 14.904 81.1293 14.44C81.3693 13.968 81.7133 13.596 82.1613 13.324C82.6093 13.044 83.1373 12.904 83.7453 12.904C84.3613 12.904 84.8893 13.044 85.3293 13.324C85.7773 13.596 86.1213 13.968 86.3613 14.44C86.6013 14.904 86.7213 15.424 86.7213 16V16.36H81.6933C81.7413 16.712 81.8533 17.036 82.0293 17.332C82.2133 17.62 82.4573 17.852 82.7613 18.028C83.0653 18.196 83.4173 18.28 83.8173 18.28C84.2413 18.28 84.5973 18.188 84.8853 18.004C85.1733 17.812 85.3973 17.568 85.5573 17.272H86.5413C86.3333 17.808 86.0013 18.248 85.5453 18.592C85.0973 18.928 84.5173 19.096 83.8053 19.096ZM81.7053 15.52H85.7853C85.7053 15.008 85.4893 14.58 85.1373 14.236C84.7853 13.892 84.3213 13.72 83.7453 13.72C83.1693 13.72 82.7053 13.892 82.3533 14.236C82.0093 14.58 81.7933 15.008 81.7053 15.52ZM87.821 19V13H88.721V13.936C88.937 13.648 89.201 13.404 89.513 13.204C89.825 13.004 90.225 12.904 90.713 12.904C91.129 12.904 91.517 13.004 91.877 13.204C92.245 13.396 92.541 13.688 92.765 14.08C92.997 14.464 93.113 14.94 93.113 15.508V19H92.213V15.532C92.213 14.988 92.057 14.552 91.745 14.224C91.433 13.888 91.029 13.72 90.533 13.72C90.197 13.72 89.893 13.796 89.621 13.948C89.349 14.1 89.129 14.316 88.961 14.596C88.801 14.868 88.721 15.184 88.721 15.544V19H87.821ZM95.1253 19V13.792H93.9013V13H95.1253V10.852H96.0253V13H97.4053V13.792H96.0253V19H95.1253Z" fill="black"/>
<path d="M15 1.25168e-06C13.0302 1.33778e-06 11.0796 0.387989 9.25975 1.14181C7.43986 1.89563 5.78628 3.00052 4.3934 4.3934C3.00052 5.78628 1.89563 7.43987 1.14181 9.25975C0.387986 11.0796 -8.27879e-07 13.0302 -6.55671e-07 15L7.5 15C7.5 14.0151 7.69399 13.0398 8.0709 12.1299C8.44781 11.2199 9.00026 10.3931 9.6967 9.6967C10.3931 9.00026 11.2199 8.44781 12.1299 8.07091C13.0398 7.69399 14.0151 7.5 15 7.5L15 1.25168e-06Z" fill="black"/>
<path d="M111 30C112.97 30 114.92 29.612 116.74 28.8582C118.56 28.1044 120.214 26.9995 121.607 25.6066C122.999 24.2137 124.104 22.5601 124.858 20.7403C125.612 18.9204 126 16.9698 126 15L118.5 15C118.5 15.9849 118.306 16.9602 117.929 17.8701C117.552 18.7801 117 19.6069 116.303 20.3033C115.607 20.9997 114.78 21.5522 113.87 21.9291C112.96 22.306 111.985 22.5 111 22.5L111 30Z" fill="black"/>
</svg>
