<svg width="37" height="37" viewBox="0 0 37 37" fill="none" xmlns="http://www.w3.org/2000/svg">
<path d="M15 30C18.9782 30 22.7936 28.4196 25.6066 25.6066C28.4196 22.7936 30 18.9782 30 15L22.5 15C22.5 16.9891 21.7098 18.8968 20.3033 20.3033C18.8968 21.7098 16.9891 22.5 15 22.5L15 30Z" fill="white"/>
<path d="M22 7C20.0302 7 18.0796 7.38799 16.2597 8.14181C14.4399 8.89563 12.7863 10.0005 11.3934 11.3934C10.0005 12.7863 8.89563 14.4399 8.14181 16.2597C7.38798 18.0796 7 20.0302 7 22L14.5 22C14.5 21.0151 14.694 20.0398 15.0709 19.1299C15.4478 18.2199 16.0003 17.3931 16.6967 16.6967C17.3931 16.0003 18.2199 15.4478 19.1299 15.0709C20.0398 14.694 21.0151 14.5 22 14.5L22 7Z" fill="white"/>
<path d="M30 22C30 18.0218 28.4196 14.2064 25.6066 11.3934C22.7936 8.58035 18.9782 7 15 7L15 14.5C16.9891 14.5 18.8968 15.2902 20.3033 16.6967C21.7098 18.1032 22.5 20.0109 22.5 22L30 22Z" fill="white"/>
<path d="M7 15C7 18.9782 8.58035 22.7936 11.3934 25.6066C14.2064 28.4196 18.0218 30 22 30L22 22.5C20.0109 22.5 18.1032 21.7098 16.6967 20.3033C15.2902 18.8968 14.5 16.9891 14.5 15L7 15Z" fill="white"/>
</svg>
