<svg width="37" height="37" viewBox="0 0 37 37" fill="none" xmlns="http://www.w3.org/2000/svg">
<path d="M30 15C30 13.0302 29.612 11.0796 28.8582 9.25975C28.1044 7.43986 26.9995 5.78628 25.6066 4.3934C24.2137 3.00052 22.5601 1.89563 20.7403 1.14181C18.9204 0.387986 16.9698 -8.61039e-08 15 0L15 7.5C15.9849 7.5 16.9602 7.69399 17.8701 8.0709C18.7801 8.44781 19.6069 9.00026 20.3033 9.6967C20.9997 10.3931 21.5522 11.2199 21.9291 12.1299C22.306 13.0398 22.5 14.0151 22.5 15L30 15Z" fill="black"/>
<path d="M7 22C7 23.9698 7.38799 25.9204 8.14181 27.7402C8.89563 29.5601 10.0005 31.2137 11.3934 32.6066C12.7863 33.9995 14.4399 35.1044 16.2597 35.8582C18.0796 36.612 20.0302 37 22 37L22 29.5C21.0151 29.5 20.0398 29.306 19.1299 28.9291C18.2199 28.5522 17.3931 27.9997 16.6967 27.3033C16.0003 26.6069 15.4478 25.7801 15.0709 24.8701C14.694 23.9602 14.5 22.9849 14.5 22L7 22Z" fill="black"/>
<path d="M15 7C13.0302 7 11.0796 7.38799 9.25975 8.14181C7.43986 8.89563 5.78628 10.0005 4.3934 11.3934C3.00052 12.7863 1.89563 14.4399 1.14181 16.2598C0.387986 18.0796 -8.27879e-07 20.0302 -6.55671e-07 22L7.5 22C7.5 21.0151 7.69399 20.0398 8.0709 19.1299C8.44781 18.2199 9.00026 17.3931 9.6967 16.6967C10.3931 16.0003 11.2199 15.4478 12.1299 15.0709C13.0398 14.694 14.0151 14.5 15 14.5L15 7Z" fill="black"/>
<path d="M22 30C23.9698 30 25.9204 29.612 27.7403 28.8582C29.5601 28.1044 31.2137 26.9995 32.6066 25.6066C33.9995 24.2137 35.1044 22.5601 35.8582 20.7403C36.612 18.9204 37 16.9698 37 15L29.5 15C29.5 15.9849 29.306 16.9602 28.9291 17.8701C28.5522 18.7801 27.9997 19.6069 27.3033 20.3033C26.6069 20.9997 25.7801 21.5522 24.8701 21.9291C23.9602 22.306 22.9849 22.5 22 22.5L22 30Z" fill="black"/>
</svg>
